<svg width="309" height="32" viewBox="0 0 309 32" fill="none" xmlns="http://www.w3.org/2000/svg">
<path d="M200.657 21.7494C200.035 24.809 199.231 25.7683 197.364 25.7683C196.12 25.7683 195.29 25.2757 194.59 24.1608C193.812 22.8903 193.423 20.9975 193.423 18.5602C193.423 13.7894 194.771 11.2744 197.338 11.2744C198.401 11.2744 199.231 11.7151 199.802 12.5967C200.165 13.1412 200.372 13.7635 200.657 15.2673L202.68 14.8006C201.902 11.1447 200.268 9.51123 197.312 9.51123C193.397 9.51123 191.193 12.7782 191.193 18.5343C191.193 24.3941 193.294 27.5314 197.235 27.5314C200.32 27.5314 201.85 26.0017 202.576 22.2161L200.657 21.7494Z" fill="#252C30"/>
<path d="M207.964 9.87423L203.116 27.1684H205.216L206.46 22.2161H211.672L212.942 27.1684H215.043L210.453 9.87423H207.964ZM211.231 20.5308H206.901L209.079 11.9226L211.231 20.5308Z" fill="#252C30"/>
<path d="M216.732 9.87423V27.1684H218.547V12.4411L225.755 27.1684H227.829V9.87423H226.014V23.5385L219.402 9.87423H216.732Z" fill="#252C30"/>
<path d="M229.969 9.87423V12.5967H231.032L229.502 15.5785H230.643L232.328 12.4411V9.87423H229.969Z" fill="#252C30"/>
<path d="M234.042 9.87423V11.6374H238.165V27.1684H240.265V11.6374H244.413V9.87423H234.042Z" fill="#252C30"/>
<path d="M253.071 9.87423L256.779 27.1684H258.75L261.706 13.945L264.765 27.1684H266.736L270.314 9.87423H268.499L265.75 23.6163L262.613 9.87423H260.954L257.894 23.6163L255.12 9.87423H253.071Z" fill="#252C30"/>
<path d="M273.923 9.87423L269.075 27.1684H271.175L272.42 22.2161H277.631L278.902 27.1684H281.002L276.413 9.87423H273.923ZM277.19 20.5308H272.86L275.038 11.9226L277.19 20.5308Z" fill="#252C30"/>
<path d="M282.769 9.87423V27.1684H284.869V9.87423H282.769Z" fill="#252C30"/>
<path d="M286.676 9.87423V11.6374H290.798V27.1684H292.898V11.6374H297.047V9.87423H286.676Z" fill="#252C30"/>
<path d="M22.0458 4.39819L8.90039 26.6536" stroke="#252C30" stroke-width="1.79726" stroke-linecap="round" stroke-linejoin="round"/>
<path d="M3.56836 10.11C18.8452 5.87737 34.3269 2.82048 49.7706 1" stroke="#252C30" stroke-width="1.79726" stroke-linecap="round" stroke-linejoin="round"/>
<path d="M28.3268 9.30591L17.2598 25.9405" stroke="#252C30" stroke-width="1.79726" stroke-linecap="round" stroke-linejoin="round"/>
<path d="M44.0549 7.18945C38.8742 14.9796 33.6782 22.7925 29.6504 30.9998" stroke="#252C30" stroke-width="1.79726" stroke-linecap="round" stroke-linejoin="round"/>
<path d="M17.5039 21.072C25.1248 19.6666 32.9423 18.5133 40.9001 17.6201" stroke="#252C30" stroke-width="1.79726" stroke-linecap="round" stroke-linejoin="round"/>
<path d="M49.3764 9.85205C45.8821 16.1175 42.3321 22.3527 38.7266 28.5575" stroke="#252C30" stroke-width="1.79726" stroke-linecap="round" stroke-linejoin="round"/>
<path d="M61.3757 9.79141C59.578 9.32112 57.5375 9.95828 56.3239 11.3616C55.1102 12.7649 54.7765 14.8812 55.4971 16.5955C56.7638 19.5841 62.0811 21.6473 60.1469 25.5689C58.8498 28.1858 55.224 28.8913 52.6071 28.7092C50.1039 28.5348 47.8283 27.1997 47.3125 24.598" stroke="#252C30" stroke-width="1.79726" stroke-linecap="round" stroke-linejoin="round"/>
<path d="M88.405 5.92041C84.9238 10.5542 81.7152 15.4138 79.153 20.6084C78.1483 22.6566 77.2294 24.7982 77.0892 27.0723C77.0658 27.4539 77.0736 27.8589 77.2839 28.1704C77.7589 28.8713 78.8492 28.6454 79.5969 28.2483C80.6171 27.6953 81.5205 26.9711 82.4239 26.2468C88.9268 20.9978 95.2038 15.4684 101.473 9.93896C98.2644 15.2814 95.0091 20.7407 93.6151 26.8153C99.7323 20.4602 106.165 14.417 112.89 8.70847" stroke="#252C30" stroke-width="1.79726" stroke-linecap="round" stroke-linejoin="round"/>
<path d="M119.977 10.4141C116.835 12.7602 113.939 15.4191 111.333 18.3499C110.032 19.814 108.771 21.395 108.233 23.2719C108.046 23.9183 108.007 24.7282 108.545 25.1254C108.926 25.4057 109.448 25.359 109.908 25.2422C111.099 24.9385 112.151 24.2453 113.155 23.5211C114.76 22.3607 116.294 21.0912 117.781 19.7751C119.487 18.2565 121.153 16.6444 122.392 14.7208C122.913 13.9108 123.357 13.0152 123.381 12.0573C123.381 11.8392 123.365 11.6134 123.241 11.4265C122.952 10.9826 122.29 11.0449 121.776 11.1773C117.924 12.1482 114.308 13.8887 111.146 16.2939" stroke="#252C30" stroke-width="1.79726" stroke-linecap="round" stroke-linejoin="round"/>
<path d="M132.686 7.25219C129.405 12.361 126.111 17.4543 122.804 22.532C122.297 23.303 121.791 24.0818 121.184 24.7671C120.989 24.222 121.332 23.6457 121.667 23.1784C124.151 19.7206 127.071 16.6054 130.077 13.6071C132.858 10.8346 135.77 8.12443 139.236 6.27871C140.023 5.85816 140.871 5.47655 141.759 5.47655C141.916 5.46564 142.073 5.50083 142.211 5.5778C142.398 5.7024 142.468 5.94383 142.484 6.16968C142.569 7.21325 141.876 8.14001 141.183 8.9188C136.471 14.2691 130.249 18.054 125.023 22.898C132.266 18.5913 141.417 17.6334 149.399 20.3592" stroke="#252C30" stroke-width="1.79726" stroke-linecap="round" stroke-linejoin="round"/>
<path d="M157.296 5.56226C153.605 11.8185 149.63 17.9009 145.373 23.8093" stroke="#252C30" stroke-width="1.79726" stroke-linecap="round" stroke-linejoin="round"/>
<path d="M167.585 6.17749C161.714 9.85335 155.66 13.2298 149.447 16.2939C161.043 16.4809 172.538 18.6848 183.706 21.8311" stroke="#252C30" stroke-width="1.79726" stroke-linecap="round" stroke-linejoin="round"/>
<rect x="187.5" y="1.51099" width="121" height="25.6974" stroke="#252C30" stroke-width="0.385127"/>
<rect x="0.5" y="1.51099" width="187" height="25.6974" stroke="#252C30" stroke-width="0.385127"/>
</svg>
