<svg width="628" height="62" viewBox="0 0 628 62" fill="none" xmlns="http://www.w3.org/2000/svg">
<path d="M183.989 9.74072C177.999 18.6261 171.868 27.5186 166.767 36.9741C166.244 37.9439 158.833 51.6096 163.107 50.7695C165.944 50.212 168.801 48.1564 171.225 46.7428C175.713 44.1263 180.154 41.4686 184.857 39.2614C186.925 38.2909 190.623 36.0535 192.858 37.1885" stroke="black" stroke-width="4" stroke-linecap="round"/>
<path d="M169.207 32.0417C174.945 29.4926 180.404 27.0881 186.522 25.6086" stroke="black" stroke-width="4" stroke-linecap="round"/>
<path d="M180.199 12.7343C186.187 9.43551 190.496 9.18078 197.176 10.2637" stroke="black" stroke-width="4" stroke-linecap="round"/>
<path d="M217.776 8.02515C216.266 14.8291 211.964 20.9068 208.344 26.7049C205.433 31.3678 202.402 35.9516 199.499 40.6194C198.172 42.7525 195.391 46.1069 194.994 48.768C194.695 50.7687 206.425 44.4687 207.171 44.0266C212.903 40.6311 218.042 37.3349 224.533 35.9018" stroke="black" stroke-width="4" stroke-linecap="round"/>
<path d="M248.605 8.45459C239.97 12.2541 230.575 17.3117 224.344 24.7041C222.236 27.2056 225.188 26.6589 226.878 26.3243C231.054 25.4977 235.6 23.5908 239.924 24.0369C249.247 24.9989 230.779 38.8973 229.225 39.9529C226.293 41.9444 222.991 43.4125 220.121 45.4805C219.225 46.126 222.241 44.8841 223.265 44.4798" stroke="black" stroke-width="4" stroke-linecap="round"/>
<path d="M260.234 8.02515C260.394 10.6793 259.277 12.611 257.981 14.8871C254.732 20.5958 251.125 26.0888 247.845 31.7799C245.949 35.07 244.199 38.4396 242.449 41.8107C242.305 42.0876 241.199 43.5192 241.933 43.288C247.799 41.4392 253.335 38.6707 259.295 37.0455C261.61 36.4143 263.959 36.0424 266.287 35.4968C267.231 35.2756 265.482 35.0746 265.302 35.0441" stroke="black" stroke-width="4" stroke-linecap="round"/>
<path d="M247.988 27.7537C252.806 25.9565 259.116 24.8543 263.192 21.7495" stroke="black" stroke-width="4" stroke-linecap="round"/>
<path d="M250.523 20.4632C254.428 16.102 260.713 14.4669 265.938 12.3146C270.11 10.5964 275.111 9.2496 278.819 6.73926" stroke="black" stroke-width="4" stroke-linecap="round"/>
<path d="M36.7613 8.41943C31.1586 13.1336 27.6303 20.1615 23.9507 26.4321C19.8441 33.4304 15.146 41.8155 13.8618 49.9962C12.9557 55.7682 20.8002 47.3407 21.6983 46.3984C27.161 40.6669 31.3671 33.4286 37.0898 28.0046C37.4117 27.6995 36.8196 28.8573 36.644 29.2674C35.3714 32.2398 34.2755 35.2488 33.4766 38.3928C32.8623 40.8099 29.8445 51.7742 35.6821 47.5183C38.593 45.396 40.7614 42.3688 42.8147 39.4412C46.7503 33.8297 50.3801 27.9512 53.7952 22.0004C56.4959 17.2944 59.9817 12.3026 61.6787 7.13281" stroke="black" stroke-width="4" stroke-linecap="round"/>
<path d="M71.3918 10.1346C74.4569 7.10385 71.3799 10.9926 70.5706 12.2075C64.9855 20.5917 60.4996 29.7411 55.7657 38.6307C52.1255 45.4664 48.3373 52.2062 44.5036 58.9307C42.5096 62.4283 45.3383 56.2857 45.6298 55.595" stroke="black" stroke-width="4" stroke-linecap="round"/>
<path d="M81.9514 10.1353C76.8162 19.406 72.8266 29.3161 68.4369 38.965C66.6155 42.9686 64.9607 47.1356 62.8059 50.9734C62.14 52.1595 62.1896 52.2536 61.6797 51.7358" stroke="black" stroke-width="4" stroke-linecap="round"/>
<path d="M57.0312 38.0109C62.1442 35.9039 67.426 34.2064 72.6574 32.4355" stroke="black" stroke-width="4" stroke-linecap="round"/>
<path d="M97.5748 9.70605C95.7367 14.7967 93.0166 19.4596 90.4422 24.1924C86.9775 30.5618 83.6047 36.9766 79.9778 43.2534C77.956 46.7525 81.218 38.2844 81.4795 37.7257C84.4324 31.4141 87.952 25.1673 91.803 19.3795C92.3638 18.5366 97.2641 10.5002 99.0764 11.9934C100.314 13.0132 99.8175 16.696 99.7334 17.7831C99.4064 22.01 98.4535 26.1329 97.481 30.2443C96.0178 36.4299 94.7766 42.792 92.9292 48.8764C92.5006 50.288 92.1049 51.8376 90.8176 52.1644" stroke="black" stroke-width="4" stroke-linecap="round"/>
<path d="M84.4844 40.1564C88.2332 38.5338 92.0027 37.1134 95.8872 35.8677" stroke="black" stroke-width="4" stroke-linecap="round"/>
<path d="M118.627 14.8523C114.442 25.2123 109.938 35.4318 105.958 45.874C105.515 47.0343 104.926 49.6735 103.94 50.5916C103.282 51.2038 103.846 48.7814 103.846 47.8754" stroke="black" stroke-width="4" stroke-linecap="round"/>
<path d="M102.16 17.8547C109.341 17.8547 116.422 14.5784 123.464 13.3277C130.646 12.0524 137.981 11.2479 145.261 10.8498C146.57 10.7782 149.883 10.2231 149.883 11.4216" stroke="black" stroke-width="4" stroke-linecap="round"/>
<path d="M331.933 41.9023C330.667 48.2244 329.031 50.2068 325.233 50.2068C322.7 50.2068 321.012 49.1888 319.587 46.885C318.005 44.2597 317.213 40.3485 317.213 35.3123C317.213 25.454 319.957 20.257 325.18 20.257C327.343 20.257 329.031 21.1678 330.192 22.9895C330.931 24.1146 331.353 25.4005 331.933 28.5079L336.048 27.5436C334.466 19.9891 331.142 16.6138 325.127 16.6138C317.16 16.6138 312.676 23.3645 312.676 35.2587C312.676 47.3672 316.949 53.85 324.969 53.85C331.247 53.85 334.36 50.689 335.837 42.8667L331.933 41.9023Z" fill="black"/>
<path d="M350.495 17.3639L340.629 53.1H344.902L347.435 42.8667H358.039L360.625 53.1H364.898L355.56 17.3639H350.495ZM357.142 39.3842H348.332L352.763 21.5965L357.142 39.3842Z" fill="black"/>
<path d="M372.028 17.3639V53.1H375.721V22.668L390.389 53.1H394.609V17.3639H390.916V45.5991L377.462 17.3639H372.028Z" fill="black"/>
<path d="M404.239 17.3639V22.9895H406.402L403.29 29.1509H405.611L409.04 22.668V17.3639H404.239Z" fill="black"/>
<path d="M413.055 17.3639V21.0071H421.444V53.1H425.718V21.0071H434.159V17.3639H413.055Z" fill="black"/>
<path d="M449.139 17.3639L456.684 53.1H460.694L466.708 25.7755L472.934 53.1H476.944L484.224 17.3639H480.531L474.939 45.7599L468.555 17.3639H465.178L458.952 45.7599L453.307 17.3639H449.139Z" fill="black"/>
<path d="M496.934 17.3639L487.068 53.1H491.342L493.874 42.8667H504.479L507.064 53.1H511.338L501.999 17.3639H496.934ZM503.582 39.3842H494.771L499.203 21.5965L503.582 39.3842Z" fill="black"/>
<path d="M518.626 17.3639V53.1H522.899V17.3639H518.626Z" fill="black"/>
<path d="M528.159 17.3639V21.0071H536.547V53.1H540.821V21.0071H549.262V17.3639H528.159Z" fill="black"/>
<rect x="308.428" y="0.670464" width="267.133" height="51.7593" stroke="black" stroke-width="1.34093"/>
<rect x="0.670464" y="0.670464" width="307.196" height="51.7593" stroke="black" stroke-width="1.34093"/>
<path d="M584.958 29.5527C585.769 23.9234 587.392 21.9325 591.042 21.9325C594.287 21.9325 596.18 23.8547 596.18 27.2872C596.18 29.7586 595.166 31.6122 592.8 33.3284C588.473 36.3491 587.662 37.9967 587.662 43.2827V44.2438H592.394C592.394 39.9875 592.867 39.0264 595.977 36.6237C599.966 33.5344 601.385 31.063 601.385 27.2186C601.385 21.452 597.397 17.7449 591.177 17.7449C584.958 17.7449 581.578 21.0401 580.496 28.317L584.958 29.5527ZM592.732 53.0997V46.9212H587.392V53.0997H592.732Z" fill="black"/>
<rect x="576.12" y="0.670464" width="51.2092" height="51.7593" stroke="black" stroke-width="1.34093"/>
</svg>
